<?xml version="1.0" encoding="UTF-8"?>
<svg id="Capa_2" data-name="Capa 2" xmlns="http://www.w3.org/2000/svg" viewBox="0 0 338.64 104.98">
  <defs>
    <style>
      .cls-1 {
        fill: #78256f;
      }

      .cls-1, .cls-2 {
        stroke-width: 0px;
      }

      .cls-2 {
        fill: #ff6f20;
      }
    </style>
  </defs>
  <g id="Capa_1-2" data-name="Capa 1">
    <g>
      <g>
        <path class="cls-1" d="m132.11,30.78c3.39,0,6.01.79,7.88,2.36,1.87,1.57,2.8,3.81,2.8,6.72s-.93,5.15-2.8,6.72c-1.87,1.57-4.49,2.36-7.88,2.36h-4.96v8.24h-8.16v-26.4h13.12Zm-1.32,12.24c1.23,0,2.17-.26,2.82-.78.65-.52.98-1.31.98-2.38s-.33-1.86-.98-2.38c-.65-.52-1.59-.78-2.82-.78h-3.64v6.32h3.64Z"/>
        <path class="cls-1" d="m146.51,57.18v-26.4h21.28v6.12h-13.12v4.28h10.48v5.68h-10.48v4.2h13.64v6.12h-21.8Z"/>
        <path class="cls-1" d="m183.75,30.38c2.75,0,5.1.54,7.06,1.62s3.47,2.63,4.52,4.66c1.05,2.03,1.58,4.47,1.58,7.32s-.53,5.29-1.58,7.32c-1.05,2.03-2.56,3.58-4.52,4.66s-4.31,1.62-7.06,1.62-5.11-.54-7.08-1.62c-1.97-1.08-3.49-2.63-4.56-4.66-1.07-2.03-1.6-4.47-1.6-7.32s.53-5.29,1.6-7.32c1.07-2.03,2.59-3.58,4.56-4.66,1.97-1.08,4.33-1.62,7.08-1.62Zm0,6.24c-3.23,0-4.84,2.45-4.84,7.36s1.61,7.36,4.84,7.36,4.8-2.45,4.8-7.36-1.6-7.36-4.8-7.36Z"/>
        <path class="cls-1" d="m213.95,30.78c3.39,0,6.01.79,7.88,2.36,1.87,1.57,2.8,3.81,2.8,6.72s-.93,5.15-2.8,6.72c-1.87,1.57-4.49,2.36-7.88,2.36h-4.96v8.24h-8.16v-26.4h13.12Zm-1.32,12.24c1.23,0,2.17-.26,2.82-.78.65-.52.98-1.31.98-2.38s-.33-1.86-.98-2.38c-.65-.52-1.59-.78-2.82-.78h-3.64v6.32h3.64Z"/>
        <path class="cls-1" d="m236.51,51.06h12.56v6.12h-20.72v-26.4h8.16v20.28Z"/>
        <path class="cls-1" d="m252.51,57.18v-26.4h21.28v6.12h-13.12v4.28h10.48v5.68h-10.48v4.2h13.64v6.12h-21.8Z"/>
        <path class="cls-1" d="m144.03,93.3h-8.4l-1.48-5.48h-8.04l-1.52,5.48h-8.16l8.88-26.4h9.8l8.92,26.4Zm-16.56-10.76h5.36l-2.68-9.84-2.68,9.84Z"/>
        <path class="cls-1" d="m171.23,66.9v26.4h-8.96l-7.2-13.08-1.68-3.56h-.08l.16,5.2v11.44h-7.12v-26.4h8.92l7.2,13.08,1.72,3.56h.04l-.16-5.2v-11.44h7.16Z"/>
        <path class="cls-1" d="m201.15,93.3h-8.4l-1.48-5.48h-8.04l-1.52,5.48h-8.16l8.88-26.4h9.8l8.92,26.4Zm-16.56-10.76h5.36l-2.68-9.84-2.68,9.84Z"/>
        <path class="cls-1" d="m211.63,87.18h12.56v6.12h-20.72v-26.4h8.16v20.28Z"/>
        <path class="cls-1" d="m246.95,66.9l-9.24,17.04v9.36h-8.2v-9.36l-9.28-17.04h8.28l3.2,6.6,1.96,4.6,1.92-4.6,3.24-6.6h8.12Z"/>
        <path class="cls-1" d="m272.31,66.9v6.12h-8.4v20.28h-8.16v-20.28h-8.48v-6.12h25.04Z"/>
        <path class="cls-1" d="m283.83,66.9v26.4h-8.16v-26.4h8.16Z"/>
        <path class="cls-1" d="m312.84,85.46c-.75,2.96-2.19,5.07-4.32,6.34-2.13,1.27-4.65,1.9-7.56,1.9-2.75,0-5.11-.54-7.08-1.62-1.97-1.08-3.49-2.63-4.56-4.66-1.07-2.03-1.6-4.47-1.6-7.32s.53-5.29,1.6-7.32c1.07-2.03,2.59-3.58,4.56-4.66,1.97-1.08,4.32-1.62,7.04-1.62,1.89,0,3.65.27,5.28.8,1.63.53,3,1.37,4.12,2.5,1.12,1.13,1.88,2.58,2.28,4.34l-7.08,2.84c-.29-1.68-.81-2.81-1.54-3.38-.73-.57-1.67-.86-2.82-.86-1.63,0-2.87.61-3.74,1.82-.87,1.21-1.3,3.06-1.3,5.54s.41,4.29,1.24,5.52c.83,1.23,2.15,1.84,3.96,1.84,1.09,0,2.01-.32,2.76-.96.75-.64,1.24-1.64,1.48-3l7.28,1.96Z"/>
        <path class="cls-1" d="m326.84,66.5c4.91,0,8.84,1.37,11.8,4.12l-3.56,5.24c-1.2-1.01-2.47-1.81-3.82-2.38-1.35-.57-2.83-.86-4.46-.86-1.25,0-2.14.17-2.66.52-.52.35-.78.79-.78,1.32,0,.43.25.77.76,1.04.51.27,1.24.51,2.2.72l4,.92c2.67.61,4.65,1.51,5.96,2.7,1.31,1.19,1.96,2.81,1.96,4.86s-.5,3.67-1.5,5c-1,1.33-2.37,2.33-4.1,3-1.73.67-3.69,1-5.88,1-2.61,0-5.09-.39-7.42-1.16-2.33-.77-4.22-1.84-5.66-3.2l3.52-5.4c.72.69,1.6,1.31,2.64,1.86,1.04.55,2.15.98,3.32,1.3,1.17.32,2.31.48,3.4.48s1.98-.16,2.5-.48c.52-.32.78-.76.78-1.32,0-.45-.17-.82-.52-1.1-.35-.28-1-.53-1.96-.74l-4.4-1c-1.44-.32-2.77-.76-4-1.32-1.23-.56-2.21-1.34-2.94-2.34-.73-1-1.1-2.31-1.1-3.94,0-1.73.47-3.26,1.4-4.58.93-1.32,2.29-2.36,4.08-3.12,1.79-.76,3.93-1.14,6.44-1.14Z"/>
      </g>
      <g>
        <circle class="cls-2" cx="28.15" cy="39.66" r="4.39"/>
        <circle class="cls-2" cx="53.37" cy="29.19" r="4.39"/>
        <circle class="cls-2" cx="78.32" cy="23.61" r="4.39"/>
        <path class="cls-2" d="m88.24,64.23c-.21.73-.44,1.44-.68,2.14-.6,1.67-1.38,3.52-2.45,5.46-.37.68-.73,1.33-1.15,1.98-.44.7-.91,1.31-1.38,1.96l3.98-34.04c.65-5.55-3.32-10.58-8.88-11.23h-.09c-5.55-.66-10.58,3.31-11.23,8.86l-6,51.24c-1.39.33-2.79.59-4.21.76l5.16-44.11c.65-5.55-3.32-10.58-8.88-11.23h-.09c-5.55-.66-10.58,3.31-11.23,8.87l-5.07,43.35c-1.07-.49-2.12-1.02-3.14-1.61l3.37-28.83c.65-5.55-3.32-10.58-8.88-11.23h-.09c-5.55-.66-10.58,3.31-11.23,8.87l-.93,7.92c-.82-3.12-1.3-6.33-1.3-9.6,0-1.02.05-2.04.13-3.05.21-2.87.78-5.72,1.64-8.46.42-1.33.94-2.66,1.51-3.94,5.19-11.67,15.82-19.86,28.37-21.95,1.23-.21,2.48-.34,3.71-.42.81-.05,1.62-.1,2.45-.1h.08V6.02c-1.07,0-2.17.03-3.18.1-1.54.1-3.11.26-4.65.52-15.84,2.61-29.21,12.97-35.76,27.64-.73,1.62-1.38,3.29-1.91,4.99-1.1,3.47-1.8,7.05-2.09,10.65-.1,1.25-.16,2.56-.16,3.84,0,10.86,3.76,21.38,10.44,29.78l-13.03,13.03c-1.93,1.93-1.93,5.04,0,6.97.97.97,2.22,1.44,3.47,1.44s2.53-.47,3.47-1.44l13-12.97c.23.21.5.42.76.63,7.62,6.06,16.78,9.58,26.44,10.21,1.04.08,2.11.1,3.18.1h.86c14.15-.26,27.56-6.89,36.39-17.85h.08l1.49-2.06c.05-.08.13-.18.18-.26l.73-1.02v-.05c3.26-4.86,5.61-10.34,6.87-16.03h-10.13Z"/>
      </g>
      <path class="cls-1" d="m105.56,47.75c0,1.22-.05,2.45-.14,3.65-.11,1.52-.31,3.08-.57,4.61-.13.73-.27,1.47-.44,2.2h-10.14c.37-1.27.66-2.57.89-3.89.21-1.21.37-2.43.45-3.65.08-.98.11-1.95.11-2.92,0-8.69-2.86-16.86-8.27-23.63-.76-.96-1.58-1.89-2.45-2.78-2.46-2.54-5.25-4.71-8.29-6.46-3.62-2.09-7.53-3.55-11.6-4.34-2.38-.47-4.83-.71-7.3-.71V0c3.1,0,6.19.3,9.18.89,5.14.99,10.06,2.84,14.63,5.47,3.83,2.2,7.34,4.94,10.43,8.12,1.09,1.11,2.13,2.29,3.09,3.51,6.71,8.4,10.41,18.97,10.41,29.76Z"/>
    </g>
  </g>
</svg>