<?xml version="1.0" encoding="UTF-8"?>
<svg id="Capa_2" data-name="Capa 2" xmlns="http://www.w3.org/2000/svg" viewBox="0 0 178.42 167.8">
  <defs>
    <style>
      .cls-1 {
        fill: #78256f;
      }

      .cls-1, .cls-2 {
        stroke-width: 0px;
      }

      .cls-2 {
        fill: #ff6f20;
      }
    </style>
  </defs>
  <g id="Capa_1-2" data-name="Capa 1">
    <g>
      <g>
        <g>
          <path class="cls-1" d="m36.58,117.28c2.72,0,4.83.63,6.33,1.89,1.5,1.26,2.25,3.06,2.25,5.4s-.75,4.13-2.25,5.4c-1.5,1.26-3.61,1.89-6.33,1.89h-3.98v6.62h-6.55v-21.2h10.53Zm-1.06,9.83c.98,0,1.74-.21,2.26-.63.52-.42.79-1.05.79-1.91s-.26-1.49-.79-1.91c-.53-.42-1.28-.63-2.26-.63h-2.92v5.07h2.92Z"/>
          <path class="cls-1" d="m48.14,138.48v-21.2h17.09v4.91h-10.53v3.44h8.41v4.56h-8.41v3.37h10.95v4.91h-17.5Z"/>
          <path class="cls-1" d="m78.05,116.96c2.21,0,4.1.43,5.67,1.3s2.78,2.11,3.63,3.74c.85,1.63,1.27,3.59,1.27,5.88s-.42,4.25-1.27,5.88c-.85,1.63-2.06,2.87-3.63,3.74s-3.46,1.3-5.67,1.3-4.1-.43-5.68-1.3c-1.58-.87-2.81-2.11-3.66-3.74-.86-1.63-1.28-3.59-1.28-5.88s.43-4.25,1.28-5.88c.86-1.63,2.08-2.87,3.66-3.74,1.58-.87,3.48-1.3,5.68-1.3Zm0,5.01c-2.59,0-3.89,1.97-3.89,5.91s1.3,5.91,3.89,5.91,3.85-1.97,3.85-5.91-1.28-5.91-3.85-5.91Z"/>
          <path class="cls-1" d="m103.1,117.28c2.72,0,4.83.63,6.33,1.89,1.5,1.26,2.25,3.06,2.25,5.4s-.75,4.13-2.25,5.4c-1.5,1.26-3.61,1.89-6.33,1.89h-3.98v6.62h-6.55v-21.2h10.53Zm-1.06,9.83c.98,0,1.74-.21,2.26-.63.52-.42.79-1.05.79-1.91s-.26-1.49-.79-1.91c-.53-.42-1.28-.63-2.26-.63h-2.92v5.07h2.92Z"/>
          <path class="cls-1" d="m122.02,133.56h10.09v4.91h-16.64v-21.2h6.55v16.28Z"/>
          <path class="cls-1" d="m134.86,138.48v-21.2h17.09v4.91h-10.53v3.44h8.41v4.56h-8.41v3.37h10.95v4.91h-17.5Z"/>
        </g>
        <g>
          <path class="cls-1" d="m22.16,167.48h-6.74l-1.19-4.4h-6.46l-1.22,4.4H0l7.13-21.2h7.87l7.16,21.2Zm-13.3-8.64h4.3l-2.15-7.9-2.15,7.9Z"/>
          <path class="cls-1" d="m44,146.28v21.2h-7.19l-5.78-10.5-1.35-2.86h-.06l.13,4.18v9.19h-5.72v-21.2h7.16l5.78,10.5,1.38,2.86h.03l-.13-4.18v-9.19h5.75Z"/>
          <path class="cls-1" d="m68.03,167.48h-6.74l-1.19-4.4h-6.46l-1.22,4.4h-6.55l7.13-21.2h7.87l7.16,21.2Zm-13.3-8.64h4.3l-2.15-7.9-2.15,7.9Z"/>
          <path class="cls-1" d="m76.44,162.57h10.09v4.91h-16.64v-21.2h6.55v16.28Z"/>
          <path class="cls-1" d="m104.8,146.28l-7.42,13.68v7.52h-6.58v-7.52l-7.45-13.68h6.65l2.57,5.3,1.57,3.69,1.54-3.69,2.6-5.3h6.52Z"/>
          <path class="cls-1" d="m125.16,146.28v4.91h-6.74v16.28h-6.55v-16.28h-6.81v-4.91h20.11Z"/>
          <path class="cls-1" d="m134.41,146.28v21.2h-6.55v-21.2h6.55Z"/>
          <path class="cls-1" d="m157.7,161.19c-.6,2.38-1.76,4.07-3.47,5.09-1.71,1.02-3.74,1.53-6.07,1.53-2.21,0-4.1-.43-5.68-1.3-1.58-.87-2.81-2.11-3.66-3.74-.86-1.63-1.28-3.59-1.28-5.88s.43-4.25,1.28-5.88c.86-1.63,2.08-2.87,3.66-3.74,1.58-.87,3.47-1.3,5.65-1.3,1.52,0,2.93.21,4.24.64,1.31.43,2.41,1.1,3.31,2.01.9.91,1.51,2.07,1.83,3.48l-5.68,2.28c-.24-1.35-.65-2.25-1.24-2.71-.59-.46-1.34-.69-2.26-.69-1.31,0-2.31.49-3,1.46-.7.97-1.04,2.46-1.04,4.45s.33,3.45,1,4.43c.66.99,1.72,1.48,3.18,1.48.88,0,1.62-.26,2.22-.77.6-.51,1-1.32,1.19-2.41l5.85,1.57Z"/>
          <path class="cls-1" d="m168.94,145.96c3.94,0,7.1,1.1,9.47,3.31l-2.86,4.21c-.96-.81-1.99-1.45-3.07-1.91-1.08-.46-2.28-.69-3.58-.69-1.01,0-1.72.14-2.14.42-.42.28-.63.63-.63,1.06,0,.34.2.62.61.84.41.21,1,.41,1.77.58l3.21.74c2.14.49,3.74,1.22,4.79,2.17,1.05.95,1.57,2.25,1.57,3.9s-.4,2.94-1.2,4.01c-.8,1.07-1.9,1.87-3.29,2.41-1.39.54-2.97.8-4.72.8-2.1,0-4.08-.31-5.96-.93-1.87-.62-3.39-1.48-4.54-2.57l2.83-4.34c.58.56,1.28,1.05,2.12,1.49.84.44,1.72.79,2.67,1.04.94.26,1.85.39,2.73.39s1.59-.13,2.01-.39c.42-.26.63-.61.63-1.06,0-.36-.14-.66-.42-.88-.28-.22-.8-.42-1.57-.59l-3.53-.8c-1.16-.26-2.23-.61-3.21-1.06-.99-.45-1.77-1.08-2.36-1.88-.59-.8-.88-1.86-.88-3.16,0-1.39.37-2.62,1.12-3.68.75-1.06,1.84-1.89,3.28-2.51,1.43-.61,3.16-.92,5.17-.92Z"/>
        </g>
      </g>
      <g>
        <circle class="cls-2" cx="63.6" cy="39.66" r="4.39"/>
        <circle class="cls-2" cx="88.82" cy="29.19" r="4.39"/>
        <circle class="cls-2" cx="113.77" cy="23.61" r="4.39"/>
        <path class="cls-2" d="m123.68,64.23c-.21.73-.44,1.44-.68,2.14-.6,1.67-1.38,3.52-2.45,5.46-.37.68-.73,1.33-1.15,1.98-.44.7-.91,1.31-1.38,1.96l3.98-34.04c.65-5.55-3.32-10.58-8.88-11.23h-.09c-5.55-.66-10.58,3.31-11.23,8.86l-6,51.24c-1.39.33-2.79.59-4.21.76l5.16-44.11c.65-5.55-3.32-10.58-8.88-11.23h-.09c-5.55-.66-10.58,3.31-11.23,8.87l-5.07,43.35c-1.07-.49-2.12-1.02-3.14-1.61l3.37-28.83c.65-5.55-3.32-10.58-8.88-11.23h-.09c-5.55-.66-10.58,3.31-11.23,8.87l-.93,7.92c-.82-3.12-1.3-6.33-1.3-9.6,0-1.02.05-2.04.13-3.05.21-2.87.78-5.72,1.64-8.46.42-1.33.94-2.66,1.51-3.94,5.19-11.67,15.82-19.86,28.37-21.95,1.23-.21,2.48-.34,3.71-.42.81-.05,1.62-.1,2.45-.1h.08V6.02c-1.07,0-2.17.03-3.18.1-1.54.1-3.11.26-4.65.52-15.84,2.61-29.21,12.97-35.76,27.64-.73,1.62-1.38,3.29-1.91,4.99-1.1,3.47-1.8,7.05-2.09,10.65-.1,1.25-.16,2.56-.16,3.84,0,10.86,3.76,21.38,10.44,29.78l-13.03,13.03c-1.93,1.93-1.93,5.04,0,6.97.97.97,2.22,1.44,3.47,1.44s2.53-.47,3.47-1.44l13-12.97c.23.21.5.42.76.63,7.62,6.06,16.78,9.58,26.44,10.21,1.04.08,2.11.1,3.18.1h.86c14.15-.26,27.56-6.89,36.39-17.85h.08l1.49-2.06c.05-.08.13-.18.18-.26l.73-1.02v-.05c3.26-4.86,5.61-10.34,6.87-16.03h-10.13Z"/>
      </g>
      <path class="cls-1" d="m141,47.75c0,1.22-.05,2.45-.14,3.65-.11,1.52-.31,3.08-.57,4.61-.13.73-.27,1.47-.44,2.2h-10.14c.37-1.27.66-2.57.89-3.89.21-1.21.37-2.43.45-3.65.08-.98.11-1.95.11-2.92,0-8.69-2.86-16.86-8.27-23.63-.76-.96-1.58-1.89-2.45-2.78-2.46-2.54-5.25-4.71-8.29-6.46-3.62-2.09-7.53-3.55-11.6-4.34-2.38-.47-4.83-.71-7.3-.71V0c3.1,0,6.19.3,9.18.89,5.14.99,10.06,2.84,14.63,5.47,3.83,2.2,7.34,4.94,10.43,8.12,1.09,1.11,2.13,2.29,3.09,3.51,6.71,8.4,10.41,18.97,10.41,29.76Z"/>
    </g>
  </g>
</svg>