<?xml version="1.0" encoding="UTF-8"?>
<svg id="Capa_2" data-name="Capa 2" xmlns="http://www.w3.org/2000/svg" viewBox="0 0 105.56 104.98">
  <defs>
    <style>
      .cls-1 {
        fill: #78256f;
      }

      .cls-1, .cls-2 {
        stroke-width: 0px;
      }

      .cls-2 {
        fill: #ff6f20;
      }
    </style>
  </defs>
  <g id="Capa_1-2" data-name="Capa 1">
    <g>
      <g>
        <circle class="cls-2" cx="28.15" cy="39.66" r="4.39"/>
        <circle class="cls-2" cx="53.37" cy="29.19" r="4.39"/>
        <circle class="cls-2" cx="78.32" cy="23.61" r="4.39"/>
        <path class="cls-2" d="m88.24,64.23c-.21.73-.44,1.44-.68,2.14-.6,1.67-1.38,3.52-2.45,5.46-.37.68-.73,1.33-1.15,1.98-.44.7-.91,1.31-1.38,1.96l3.98-34.04c.65-5.55-3.32-10.58-8.88-11.23h-.09c-5.55-.66-10.58,3.31-11.23,8.86l-6,51.24c-1.39.33-2.79.59-4.21.76l5.16-44.11c.65-5.55-3.32-10.58-8.88-11.23h-.09c-5.55-.66-10.58,3.31-11.23,8.87l-5.07,43.35c-1.07-.49-2.12-1.02-3.14-1.61l3.37-28.83c.65-5.55-3.32-10.58-8.88-11.23h-.09c-5.55-.66-10.58,3.31-11.23,8.87l-.93,7.92c-.82-3.12-1.3-6.33-1.3-9.6,0-1.02.05-2.04.13-3.05.21-2.87.78-5.72,1.64-8.46.42-1.33.94-2.66,1.51-3.94,5.19-11.67,15.82-19.86,28.37-21.95,1.23-.21,2.48-.34,3.71-.42.81-.05,1.62-.1,2.45-.1h.08V6.02c-1.07,0-2.17.03-3.18.1-1.54.1-3.11.26-4.65.52-15.84,2.61-29.21,12.97-35.76,27.64-.73,1.62-1.38,3.29-1.91,4.99-1.1,3.47-1.8,7.05-2.09,10.65-.1,1.25-.16,2.56-.16,3.84,0,10.86,3.76,21.38,10.44,29.78l-13.03,13.03c-1.93,1.93-1.93,5.04,0,6.97.97.97,2.22,1.44,3.47,1.44s2.53-.47,3.47-1.44l13-12.97c.23.21.5.42.76.63,7.62,6.06,16.78,9.58,26.44,10.21,1.04.08,2.11.1,3.18.1h.86c14.15-.26,27.56-6.89,36.39-17.85h.08l1.49-2.06c.05-.08.13-.18.18-.26l.73-1.02v-.05c3.26-4.86,5.61-10.34,6.87-16.03h-10.13Z"/>
      </g>
      <path class="cls-1" d="m105.56,47.75c0,1.22-.05,2.45-.14,3.65-.11,1.52-.31,3.08-.57,4.61-.13.73-.27,1.47-.44,2.2h-10.14c.37-1.27.66-2.57.89-3.89.21-1.21.37-2.43.45-3.65.08-.98.11-1.95.11-2.92,0-8.69-2.86-16.86-8.27-23.63-.76-.96-1.58-1.89-2.45-2.78-2.46-2.54-5.25-4.71-8.29-6.46-3.62-2.09-7.53-3.55-11.6-4.34-2.38-.47-4.83-.71-7.3-.71V0c3.1,0,6.19.3,9.18.89,5.14.99,10.06,2.84,14.63,5.47,3.83,2.2,7.34,4.94,10.43,8.12,1.09,1.11,2.13,2.29,3.09,3.51,6.71,8.4,10.41,18.97,10.41,29.76Z"/>
    </g>
  </g>
</svg>