<?xml version="1.0" encoding="UTF-8"?>
<svg version="1.1" xmlns="http://www.w3.org/2000/svg" width="246" height="138">
<path d="M0 0 C5.64163077 -0.0988093 11.28275899 -0.17143996 16.92504883 -0.21972656 C18.84473441 -0.23985348 20.76435862 -0.2671579 22.68383789 -0.30175781 C25.44172296 -0.3502293 28.19879827 -0.37295742 30.95703125 -0.390625 C32.24623222 -0.42159271 32.24623222 -0.42159271 33.56147766 -0.45318604 C34.36208115 -0.45348816 35.16268463 -0.45379028 35.98754883 -0.45410156 C36.6914827 -0.46298401 37.39541656 -0.47186646 38.12068176 -0.48101807 C40 0 40 0 41.72949219 1.67297363 C43.299444 4.5484532 43.36227306 6.41752631 43.34057617 9.68652344 C43.34023628 11.39784454 43.34023628 11.39784454 43.33988953 13.14373779 C43.32440567 14.36989807 43.30892181 15.59605835 43.29296875 16.859375 C43.28872391 18.11888977 43.28447906 19.37840454 43.28010559 20.67608643 C43.26616121 24.01688538 43.23922925 27.35706584 43.20599365 30.69769287 C43.17524839 34.10960558 43.16159079 37.5215823 43.14648438 40.93359375 C43.11339803 47.62258854 43.06160562 54.31120952 43 61 C38.71 61 34.42 61 30 61 C29.67 45.82 29.34 30.64 29 15 C29 15.33 29 15.66 29 16 C29 31 29 46 29 61 C27.02 61 25.04 61 23 61 C23 48.13 23 35.26 23 22 C21.58273764 23.18910251 21.58273764 23.18910251 21.88647461 26.60180664 C21.88663375 28.20459856 21.89232937 29.8073956 21.90234375 31.41015625 C21.90446617 32.67320839 21.90446617 32.67320839 21.90663147 33.96177673 C21.91224737 36.66205335 21.92480252 39.36224828 21.9375 42.0625 C21.94251295 43.88867068 21.94707621 45.71484266 21.95117188 47.54101562 C21.96222196 52.02737542 21.97949721 56.51367384 22 61 C20.02 61 18.04 61 16 61 C15.67 50.77 15.34 40.54 15 30 C12.03 29.67 9.06 29.34 6 29 C6 29.99 6 30.98 6 32 C8.97 32 11.94 32 15 32 C15 34.31 15 36.62 15 39 C12.68756208 39.02685412 10.3750373 39.04632841 8.0625 39.0625 C6.77472656 39.07410156 5.48695312 39.08570313 4.16015625 39.09765625 C1 39 1 39 0 38 C-0.08861992 35.1883662 -0.11522355 32.40141745 -0.09765625 29.58984375 C-0.0962413 28.74780899 -0.09482635 27.90577423 -0.09336853 27.03822327 C-0.08775263 24.33794665 -0.07519748 21.63775172 -0.0625 18.9375 C-0.05748705 17.11132932 -0.05292379 15.28515734 -0.04882812 13.45898438 C-0.03777804 8.97262458 -0.02050279 4.48632616 0 0 Z M6 6 C6 7.98 6 9.96 6 12 C6.33 12 6.66 12 7 12 C7 10.35 7 8.7 7 7 C11.2710989 7.1386402 15.54179892 7.28713901 19.8125 7.4375 C21.63491211 7.49647461 21.63491211 7.49647461 23.49414062 7.55664062 C24.65751953 7.59853516 25.82089844 7.64042969 27.01953125 7.68359375 C28.09307861 7.72025146 29.16662598 7.75690918 30.27270508 7.79467773 C33 8 33 8 36 9 C36 8.34 36 7.68 36 7 C33.18175808 5.59087904 30.82748718 5.88816447 27.6796875 5.90234375 C25.79443359 5.90717773 25.79443359 5.90717773 23.87109375 5.91210938 C22.55238281 5.92048828 21.23367187 5.92886719 19.875 5.9375 C18.53515789 5.94251511 17.195314 5.94707799 15.85546875 5.95117188 C12.57026794 5.96298914 9.28515603 5.97946383 6 6 Z " fill="#AC4581" transform="translate(113,2)"/>
<path d="M0 0 C1.32 0 2.64 0 4 0 C4.33 7.26 4.66 14.52 5 22 C7.31 22.33 9.62 22.66 12 23 C12 17.72 12 12.44 12 7 C14.64 7 17.28 7 20 7 C21.32 10.63 22.64 14.26 24 18 C26.22825644 15.77174356 26.69239369 14.34238372 27.625 11.375 C28.01558594 10.14910156 28.01558594 10.14910156 28.4140625 8.8984375 C28.60742188 8.27195312 28.80078125 7.64546875 29 7 C30.32 7 31.64 7 33 7 C33.495 7.99 33.495 7.99 34 9 C34.515625 8.505 35.03125 8.01 35.5625 7.5 C38.96381375 5.40688385 41.07072743 5.44852315 45 6 C47.9375 8.5 47.9375 8.5 50 11 C50.37125 10.34 50.7425 9.68 51.125 9 C53 7 53 7 56 6.75 C56.99 6.8325 57.98 6.915 59 7 C61.9254644 7.2236068 61.9254644 7.2236068 64 6 C68.67181016 5.58472799 71.17508513 6.30006009 75 9 C75.515625 8.505 76.03125 8.01 76.5625 7.5 C79.88974216 5.45246636 82.14830194 5.66213175 86 6 C87.36125 6.556875 87.36125 6.556875 88.75 7.125 C89.4925 7.41375 90.235 7.7025 91 8 C91.99 7.34 92.98 6.68 94 6 C98.3132535 5.52074961 100.30586782 5.52739937 103.9375 8 C104.618125 8.66 105.29875 9.32 106 10 C106.33 6.7 106.66 3.4 107 0 C108.32 0 109.64 0 111 0 C111 8.91 111 17.82 111 27 C109.68 27 108.36 27 107 27 C106.505 25.02 106.505 25.02 106 23 C105.0409375 24.0209375 105.0409375 24.0209375 104.0625 25.0625 C99.82293808 27.74467183 96.75447219 27.0417102 92 26 C90.515 25.505 90.515 25.505 89 25 C88.401875 25.309375 87.80375 25.61875 87.1875 25.9375 C84.25169828 27.36346083 82.23405699 27.33000582 79 27 C76.125 25.5 76.125 25.5 74 24 C73.46375 24.495 72.9275 24.99 72.375 25.5 C69.37505704 27.39470082 67.48955396 27.30343947 64 27 C63.34 26.67 62.68 26.34 62 26 C61.67 28.31 61.34 30.62 61 33 C59.68 33 58.36 33 57 33 C56.97299325 30.08327116 56.95315763 27.16679323 56.9375 24.25 C56.92912109 23.425 56.92074219 22.6 56.91210938 21.75 C56.90888672 20.95078125 56.90566406 20.1515625 56.90234375 19.328125 C56.89710693 18.5949707 56.89187012 17.86181641 56.88647461 17.10644531 C57.0024891 14.9538151 57.40926729 13.0685865 58 11 C57.34 11.33 56.68 11.66 56 12 C55.68758629 14.54941373 55.48696579 17.00361513 55.375 19.5625 C55.33632812 20.27341797 55.29765625 20.98433594 55.2578125 21.71679688 C55.16328217 23.47742425 55.08054183 25.23867728 55 27 C53.68 27 52.36 27 51 27 C50.67 25.35 50.34 23.7 50 22 C49.38125 22.639375 48.7625 23.27875 48.125 23.9375 C45.60831351 26.38016629 44.66691781 26.92589802 41.1875 27.3125 C37.1428851 26.91596913 35.74569969 25.97450799 33 23 C31.6875 19.25 31.6875 19.25 31 16 C29.68 19.63 28.36 23.26 27 27 C25.35 27 23.7 27 22 27 C20.35 22.38 18.7 17.76 17 13 C16.67 17.62 16.34 22.24 16 27 C3.375 27.25 3.375 27.25 0 25 C-0.34057617 22.47802734 -0.34057617 22.47802734 -0.29296875 19.3359375 C-0.28330078 18.21445313 -0.27363281 17.09296875 -0.26367188 15.9375 C-0.23853516 14.761875 -0.21339844 13.58625 -0.1875 12.375 C-0.17396484 11.19164063 -0.16042969 10.00828125 -0.14648438 8.7890625 C-0.11103916 5.85892461 -0.06162769 2.92968541 0 0 Z M40 10 C37.66545339 11.83358335 37.66545339 11.83358335 36 14 C39.3 14 42.6 14 46 14 C45.67 13.01 45.34 12.02 45 11 C42.70705512 10.14025199 42.70705512 10.14025199 40 10 Z M62.6875 12.1875 C60.76183248 14.82876262 60.76183248 14.82876262 61.0625 17.625 C62.07716722 20.19549028 62.667965 21.50083464 65 23 C68.17011158 22.92074721 69.55094611 22.41911696 71.875 20.25 C73.21165213 18.03631565 73.21165213 18.03631565 72.875 15.4375 C71.93290316 12.81308737 71.2743343 11.60045747 69 10 C64.95377763 9.54186676 64.95377763 9.54186676 62.6875 12.1875 Z M78.8125 11.0625 C76.65998051 12.99257357 76.65998051 12.99257357 76.5 16.5 C76.68168479 19.98138734 76.68168479 19.98138734 78.6875 22 C81.6266049 23.27096428 83.01582898 23.09943143 86 22 C88.36139302 19.10538099 88.36139302 19.10538099 87.8125 15.4375 C87.35160238 11.74174248 87.35160238 11.74174248 84 10 C81.04443999 9.78154802 81.04443999 9.78154802 78.8125 11.0625 Z M93.75 11.5625 C91.63897226 13.99081768 91.63897226 13.99081768 92.0625 17.625 C92.6750845 21.25516924 92.6750845 21.25516924 96 23 C99.32240324 22.6758631 100.60776303 22.39223697 103 20 C103.50007794 16.54213985 103.50007794 16.54213985 103 13 C101.30835778 10.95970404 101.30835778 10.95970404 99 10 C95.95413067 9.7148021 95.95413067 9.7148021 93.75 11.5625 Z M36 17 C36.27617533 18.94074861 36.27617533 18.94074861 37 21 C39.75556583 23.26646351 39.75556583 23.26646351 42.5625 22.875 C45.15175712 22.22648849 45.15175712 22.22648849 46.3125 19.9375 C46.539375 19.298125 46.76625 18.65875 47 18 C45.96593327 16.74050951 45.96593327 16.74050951 43.71484375 16.90234375 C42.79832031 16.91394531 41.88179687 16.92554687 40.9375 16.9375 C40.01839844 16.94652344 39.09929687 16.95554687 38.15234375 16.96484375 C37.44207031 16.97644531 36.73179687 16.98804687 36 17 Z " fill="#9D4574" transform="translate(134,105)"/>
<path d="M0 0 C1.98 0 3.96 0 6 0 C6.33 17.82 6.66 35.64 7 54 C16.57 54.33 26.14 54.66 36 55 C36 57.31 36 59.62 36 62 C31.65838175 62.04952706 27.31691425 62.08577954 22.97509766 62.10986328 C21.49883153 62.11990591 20.02258521 62.13354265 18.54638672 62.15087891 C16.42149966 62.17520421 14.29687615 62.1865004 12.171875 62.1953125 C10.8940918 62.20578613 9.61630859 62.21625977 8.29980469 62.22705078 C5.20853107 62.01434847 3.52288313 61.73915628 1 60 C-0.31857548 57.36284904 -0.11991704 55.4016736 -0.11352539 52.44873047 C-0.11344986 51.28767792 -0.11337433 50.12662537 -0.11329651 48.9303894 C-0.10813522 47.67203278 -0.10297394 46.41367615 -0.09765625 45.1171875 C-0.0962413 43.83264679 -0.09482635 42.54810608 -0.09336853 41.22463989 C-0.08954911 37.80843158 -0.07972373 34.39226574 -0.06866455 30.97607422 C-0.05843807 27.49056574 -0.05386826 24.0050504 -0.04882812 20.51953125 C-0.03810096 13.67967005 -0.02103142 6.83983706 0 0 Z " fill="#AC4581" transform="translate(92,2)"/>
<path d="M0 0 C4.78712933 -0.09886835 9.57366475 -0.17146623 14.36157227 -0.21972656 C15.99025829 -0.23984381 17.61887208 -0.26714137 19.24731445 -0.30175781 C21.58823458 -0.35027429 23.92820018 -0.37296632 26.26953125 -0.390625 C27.36186821 -0.42159271 27.36186821 -0.42159271 28.47627258 -0.45318604 C33.53855153 -0.45543362 33.53855153 -0.45543362 35.69506836 1.67297363 C37.30952159 4.55195604 37.3624265 6.39440774 37.34057617 9.68652344 C37.34023628 11.39784454 37.34023628 11.39784454 37.33988953 13.14373779 C37.32440567 14.36989807 37.30892181 15.59605835 37.29296875 16.859375 C37.28872391 18.11888977 37.28447906 19.37840454 37.28010559 20.67608643 C37.26616121 24.01688538 37.23922925 27.35706584 37.20599365 30.69769287 C37.17524839 34.10960558 37.16159079 37.5215823 37.14648438 40.93359375 C37.11339814 47.62256649 37.06318524 54.31124754 37 61 C35.02 61 33.04 61 31 61 C30.67 43.18 30.34 25.36 30 7 C15.15 6.505 15.15 6.505 0 6 C0 4.02 0 2.04 0 0 Z " fill="#EE7D00" transform="translate(119,2)"/>
<path d="M0 0 C1.98 0 3.96 0 6 0 C6.33 15.18 6.66 30.36 7 46 C14.26 46.33 21.52 46.66 29 47 C29 49.31 29 51.62 29 54 C25.03069011 54.02465881 21.06140966 54.04284023 17.09204102 54.05493164 C15.74079614 54.05997057 14.38955674 54.06680177 13.03833008 54.07543945 C11.09979566 54.08752419 9.161222 54.09269828 7.22265625 54.09765625 C5.47094116 54.10551147 5.47094116 54.10551147 3.68383789 54.11352539 C1 54 1 54 0 53 C-0.09346915 51.34261557 -0.11744977 49.68125356 -0.11352539 48.02124023 C-0.11344986 46.96021591 -0.11337433 45.89919159 -0.11329651 44.80601501 C-0.10813522 43.651866 -0.10297394 42.49771698 -0.09765625 41.30859375 C-0.0962413 40.13361832 -0.09482635 38.95864288 -0.09336853 37.74806213 C-0.08774992 33.97784936 -0.07519426 30.20769496 -0.0625 26.4375 C-0.0574874 23.88867273 -0.05292408 21.33984453 -0.04882812 18.79101562 C-0.03777444 12.52732367 -0.02101821 6.26366601 0 0 Z " fill="#AC4581" transform="translate(99,2)"/>
<path d="M0 0 C4.27077656 -0.05794812 8.54145236 -0.09357874 12.8125 -0.125 C14.02744141 -0.14175781 15.24238281 -0.15851562 16.49414062 -0.17578125 C17.65751953 -0.18222656 18.82089844 -0.18867188 20.01953125 -0.1953125 C21.62985229 -0.21102295 21.62985229 -0.21102295 23.27270508 -0.22705078 C26 0 26 0 29 2 C29.36076355 4.21463013 29.36076355 4.21463013 29.34057617 7.00048828 C29.34034958 8.04141632 29.34012299 9.08234436 29.33988953 10.15481567 C29.32440567 11.28192963 29.30892181 12.40904358 29.29296875 13.5703125 C29.28872391 14.72167694 29.28447906 15.87304138 29.28010559 17.05929565 C29.26327052 20.74809855 29.22560874 24.43636136 29.1875 28.125 C29.17245944 30.62108588 29.15876995 33.11718029 29.14648438 35.61328125 C29.1133512 41.74237275 29.06310389 47.8711478 29 54 C27.02 54 25.04 54 23 54 C22.67 38.82 22.34 23.64 22 8 C10.615 7.505 10.615 7.505 -1 7 C-0.67 4.69 -0.34 2.38 0 0 Z " fill="#EE7D00" transform="translate(120,9)"/>
<path d="M0 0 C2.69990662 1.79993774 4.5418865 3.083773 6 6 C6.55512815 10.63213493 6.6364242 13.98172127 4.125 18 C1.42418924 20.54193954 0.47534972 20.94515196 -3.25 21.375 C-8.14837783 20.88516222 -9.54077065 19.3748579 -13 16 C-14.0209375 17.2684375 -14.0209375 17.2684375 -15.0625 18.5625 C-18 21 -18 21 -21.625 21 C-26.24396336 19.63141826 -26.24396336 19.63141826 -28 17 C-28.21714241 14.18872957 -28.28284276 11.6116655 -28.1875 8.8125 C-28.17396484 8.06291016 -28.16042969 7.31332031 -28.14648438 6.54101562 C-28.11118539 4.69370233 -28.05737917 2.84675934 -28 1 C-27.01 1 -26.02 1 -25 1 C-24.93941406 1.83144531 -24.87882812 2.66289063 -24.81640625 3.51953125 C-24.73261719 4.60621094 -24.64882813 5.69289063 -24.5625 6.8125 C-24.44068359 8.43091797 -24.44068359 8.43091797 -24.31640625 10.08203125 C-24.09787539 13.05989905 -24.09787539 13.05989905 -23 16 C-21.35 15.67 -19.7 15.34 -18 15 C-17.67 10.38 -17.34 5.76 -17 1 C-15.68 1 -14.36 1 -13 1 C-12.67 2.32 -12.34 3.64 -12 5 C-11.38125 4.360625 -10.7625 3.72125 -10.125 3.0625 C-6.77678373 -0.18723932 -4.62344486 -0.45327891 0 0 Z M-8 6 C-8 6.66 -8 7.32 -8 8 C-4.7 8 -1.4 8 2 8 C1.01 6.68 0.02 5.36 -1 4 C-5.04622502 3.63019987 -5.04622502 3.63019987 -8 6 Z M-9 12 C-8.34 13.32 -7.68 14.64 -7 16 C-4.08995097 17.08223366 -4.08995097 17.08223366 -1 17 C0.94032404 15.81104764 0.94032404 15.81104764 2 14 C2 13.34 2 12.68 2 12 C-1.63 12 -5.26 12 -9 12 Z " fill="#9D4574" transform="translate(46,111)"/>
<path d="M0 0 C3.64581687 -0.02887512 7.29160463 -0.04675585 10.9375 -0.0625 C12.49887695 -0.07506836 12.49887695 -0.07506836 14.09179688 -0.08789062 C15.57583008 -0.09272461 15.57583008 -0.09272461 17.08984375 -0.09765625 C18.46450806 -0.10551147 18.46450806 -0.10551147 19.86694336 -0.11352539 C22 0 22 0 23 1 C23.0928726 2.41225046 23.11746772 3.82908934 23.11352539 5.24438477 C23.11344986 6.14524307 23.11337433 7.04610138 23.11329651 7.97425842 C23.10813522 8.95341721 23.10297394 9.93257599 23.09765625 10.94140625 C23.0962413 11.93881332 23.09482635 12.9362204 23.09336853 13.96385193 C23.08775114 17.16343124 23.07519571 20.36294169 23.0625 23.5625 C23.05748724 25.72591045 23.05292395 27.88932199 23.04882812 30.05273438 C23.03777607 35.36851325 23.02102104 40.68425171 23 46 C21.02 46 19.04 46 17 46 C17 33.13 17 20.26 17 7 C11.39 7 5.78 7 0 7 C0 4.69 0 2.38 0 0 Z " fill="#EE7D00" transform="translate(119,17)"/>
<path d="M0 0 C1.98 0 3.96 0 6 0 C6.33 12.87 6.66 25.74 7 39 C11.95 39.33 16.9 39.66 22 40 C22 41.98 22 43.96 22 46 C18.52085059 46.02887814 15.04173169 46.04675687 11.5625 46.0625 C10.07266602 46.07506836 10.07266602 46.07506836 8.55273438 46.08789062 C7.60849609 46.09111328 6.66425781 46.09433594 5.69140625 46.09765625 C4.81685791 46.10289307 3.94230957 46.10812988 3.04125977 46.11352539 C1 46 1 46 0 45 C-0.0928726 43.58774954 -0.11746772 42.17091066 -0.11352539 40.75561523 C-0.11344986 39.85475693 -0.11337433 38.95389862 -0.11329651 38.02574158 C-0.10813522 37.04658279 -0.10297394 36.06742401 -0.09765625 35.05859375 C-0.0962413 34.06118668 -0.09482635 33.0637796 -0.09336853 32.03614807 C-0.08775114 28.83656876 -0.07519571 25.63705831 -0.0625 22.4375 C-0.05748724 20.27408955 -0.05292395 18.11067801 -0.04882812 15.94726562 C-0.03777607 10.63148675 -0.02102104 5.31574829 0 0 Z " fill="#AC4581" transform="translate(106,2)"/>
<path d="M0 0 C5.28 0 10.56 0 16 0 C16 12.54 16 25.08 16 38 C14.02 38 12.04 38 10 38 C9.67 27.77 9.34 17.54 9 7 C6.03 6.67 3.06 6.34 0 6 C0 4.02 0 2.04 0 0 Z " fill="#EE7D00" transform="translate(119,25)"/>
<path d="M0 0 C2.78652535 2.11391579 3.65529602 4.08610448 4.8125 7.375 C5.01636915 11.452383 4.47212851 14.54514477 1.875 17.8125 C-1.61361383 20.45538926 -3.80628433 20.80453095 -8.1875 20.375 C-10.88740662 18.57506226 -12.7293865 17.291227 -14.1875 14.375 C-14.74262815 9.74286507 -14.8239242 6.39327873 -12.3125 2.375 C-8.53757715 -1.17786856 -4.97657913 -1.42187975 0 0 Z M-7.1875 3.375 C-8.6725 5.355 -8.6725 5.355 -10.1875 7.375 C-6.8875 7.375 -3.5875 7.375 -0.1875 7.375 C-1.1775 6.055 -2.1675 4.735 -3.1875 3.375 C-4.5075 3.375 -5.8275 3.375 -7.1875 3.375 Z M-10.1875 11.375 C-9.5275 12.695 -8.8675 14.015 -8.1875 15.375 C-5.63230079 16.18671228 -5.63230079 16.18671228 -3.1875 16.375 C-1.8675 14.725 -0.5475 13.075 0.8125 11.375 C-2.8175 11.375 -6.4475 11.375 -10.1875 11.375 Z " fill="#9D4574" transform="translate(124.1875,111.625)"/>
<path d="M0 0 C0.99 0 1.98 0 3 0 C3.14611313 3.37453898 3.23433467 6.74825766 3.3125 10.125 C3.35439453 11.07632813 3.39628906 12.02765625 3.43945312 13.0078125 C3.57766726 20.96894694 3.57766726 20.96894694 0.73046875 24.63671875 C-2.93018276 27.80509381 -2.93018276 27.80509381 -6 27.6875 C-9.41866111 27.4354626 -10.09333928 26.9245342 -12.9375 24.625 C-15.55822147 21.28953632 -16.21003714 19.84543841 -15.9375 15.6875 C-15.49998055 12.30219326 -14.91763463 10.26752118 -12.4375 7.875 C-7.90945512 5.40515734 -5.94089056 5.89255901 -1 7 C-0.67 4.69 -0.34 2.38 0 0 Z M-10.25 11.5625 C-12.3697984 13.99125919 -12.3697984 13.99125919 -11.875 17.625 C-11.29259286 21.04542055 -11.29259286 21.04542055 -9 23 C-6.22542896 23.35571424 -4.62103204 23.36405327 -2.1875 21.9375 C-0.30978961 18.87386726 -0.56270506 16.49835955 -1 13 C-2.69164222 10.95970404 -2.69164222 10.95970404 -5 10 C-8.04586933 9.7148021 -8.04586933 9.7148021 -10.25 11.5625 Z " fill="#9D4574" transform="translate(106,105)"/>
<path d="M0 0 C1.32 0 2.64 0 4 0 C4 1.32 4 2.64 4 4 C4.99 4 5.98 4 7 4 C7 5.32 7 6.64 7 8 C6.01 8 5.02 8 4 8 C4.33 11.63 4.66 15.26 5 19 C5.99 19.33 6.98 19.66 8 20 C8 21.32 8 22.64 8 24 C1.125 23.125 1.125 23.125 0 22 C-0.07271741 19.64686445 -0.08370868 17.29166332 -0.0625 14.9375 C-0.05347656 13.64714844 -0.04445313 12.35679688 -0.03515625 11.02734375 C-0.02355469 10.02832031 -0.01195312 9.02929688 0 8 C-1.32 8 -2.64 8 -4 8 C-4 13.28 -4 18.56 -4 24 C-5.32 24 -6.64 24 -8 24 C-8.05379226 21.04142591 -8.09357093 18.08382279 -8.125 15.125 C-8.14175781 14.28324219 -8.15851562 13.44148438 -8.17578125 12.57421875 C-8.18222656 11.76855469 -8.18867187 10.96289062 -8.1953125 10.1328125 C-8.20578613 9.38918457 -8.21625977 8.64555664 -8.22705078 7.87939453 C-8 6 -8 6 -6 4 C-2.875 3.875 -2.875 3.875 0 4 C0 2.68 0 1.36 0 0 Z " fill="#9D4574" transform="translate(61,108)"/>
<path d="M0 0 C2.39362978 1.8133559 2.83701046 2.98236019 3.3046875 5.90234375 C3.5290887 9.44656271 3.34548858 11.44721827 1.4375 14.5 C-1.82028019 16.50478781 -4.24782833 16.28862859 -8 16 C-8 19.3 -8 22.6 -8 26 C-9.32 26 -10.64 26 -12 26 C-12.02899599 22.22918278 -12.04679729 18.45839417 -12.0625 14.6875 C-12.07087891 13.61564453 -12.07925781 12.54378906 -12.08789062 11.43945312 C-12.09111328 10.41142578 -12.09433594 9.38339844 -12.09765625 8.32421875 C-12.10289307 7.37635498 -12.10812988 6.42849121 -12.11352539 5.4519043 C-12 3 -12 3 -11 0 C-7.50597461 -1.7470127 -3.71311682 -0.85687311 0 0 Z M-7 3 C-8.20561184 3.98267859 -8.20561184 3.98267859 -8.09765625 5.84765625 C-8.08605469 6.57855469 -8.07445312 7.30945313 -8.0625 8.0625 C-8.041875 9.361875 -8.02125 10.66125 -8 12 C-5.62694422 12.41780879 -5.62694422 12.41780879 -3 12 C-1.1375562 9.59141286 -1.1375562 9.59141286 0 7 C-1.22590192 4.92022703 -1.22590192 4.92022703 -3 3 C-4.32 3 -5.64 3 -7 3 Z " fill="#9D4574" transform="translate(14,106)"/>
<path d="M0 0 C3 1.875 3 1.875 5 5 C5.89542031 9.83368485 5.67909659 13.66897069 3.4375 18.0625 C0.2108979 20.627235 -1.89763122 21 -6 21 C-10.17029764 19.29396915 -12.18704289 17.10300819 -14 13 C-14.60682436 8.92560787 -14.17542136 7.30991106 -12.125 3.6875 C-8.76047807 -0.56763068 -5.2187974 -0.83820073 0 0 Z M-7 4 C-8.68864588 5.63709315 -8.68864588 5.63709315 -10 8 C-9.86969434 11.19248878 -9.48652286 13.24588957 -7.75 15.9375 C-5.98505394 17.21624089 -5.98505394 17.21624089 -3.5 17 C-0.84535211 16.1550616 -0.84535211 16.1550616 0.9375 13.8125 C2.31413487 10.16846653 1.54072264 8.48689861 0 5 C-2.31 4.67 -4.62 4.34 -7 4 Z " fill="#9D4574" transform="translate(81,111)"/>
<path d="M0 0 C1.32 0 2.64 0 4 0 C4 1.32 4 2.64 4 4 C2.68 4 1.36 4 0 4 C0 2.68 0 1.36 0 0 Z " fill="#9D4574" transform="translate(146,105)"/>
</svg>
